<?xml version="1.0" standalone="no"?>
<!DOCTYPE svg PUBLIC "-//W3C//DTD SVG 20010904//EN"
 "http://www.w3.org/TR/2001/REC-SVG-20010904/DTD/svg10.dtd">
<svg version="1.0" xmlns="http://www.w3.org/2000/svg"
 width="500.000000pt" height="500.000000pt" viewBox="0 0 500.000000 500.000000"
 preserveAspectRatio="xMidYMid meet">
<metadata>
Created by potrace 1.14, written by Peter Selinger 2001-2017
</metadata>
<g transform="translate(0.000000,500.000000) scale(0.100000,-0.100000)"
fill="#000000" stroke="none">
<path d="M1810 4218 c-45 -24 -39 -94 15 -177 35 -53 37 -71 9 -71 -25 0 -64
-47 -64 -77 0 -40 33 -88 85 -125 25 -18 45 -35 45 -39 0 -5 -23 -38 -50 -75
-103 -135 -171 -304 -220 -542 -25 -122 -35 -152 -68 -205 -21 -34 -41 -69
-44 -77 -4 -11 -9 -6 -19 15 -32 72 -88 145 -183 239 -109 107 -138 154 -185
298 -28 85 -58 102 -113 64 -80 -54 -132 -185 -133 -338 l0 -97 -49 -3 c-40
-2 -53 -8 -70 -31 -32 -44 -29 -195 6 -297 l26 -75 -39 -36 c-37 -34 -40 -40
-35 -79 16 -129 101 -245 254 -343 l62 -40 -19 -21 c-77 -83 37 -229 207 -265
29 -6 69 -11 87 -11 29 0 35 -4 35 -20 0 -41 30 -81 77 -102 38 -17 59 -19
118 -15 39 4 84 11 100 17 15 6 30 8 33 5 3 -3 0 -29 -6 -57 -7 -29 -15 -79
-18 -112 -5 -45 -14 -65 -36 -90 -16 -17 -31 -41 -35 -54 -10 -39 3 -104 32
-165 15 -32 24 -61 21 -64 -3 -4 -7 -4 -9 -2 -61 87 -90 110 -146 116 -33 3
-42 -1 -65 -27 -49 -59 -25 -147 60 -216 51 -42 45 -55 -12 -28 -36 17 -39 17
-107 -6 -118 -40 -174 -94 -145 -139 35 -57 268 -132 483 -156 33 -4 71 -9 85
-11 14 -2 54 -6 90 -9 36 -4 76 -8 90 -10 134 -24 926 -24 1135 -1 17 2 59 6
95 10 36 3 76 8 89 11 13 2 49 7 80 11 142 16 330 64 416 107 54 26 75 46 75
71 0 38 -28 63 -107 97 -75 31 -94 36 -137 38 -18 1 -18 3 6 29 66 69 85 142
51 192 -23 35 -33 40 -74 40 -19 0 -44 6 -54 14 -18 13 -18 15 9 46 60 72 71
106 71 225 0 87 -5 125 -23 185 -45 144 -133 297 -244 422 l-59 67 33 17 c18
9 41 23 50 31 12 11 26 13 50 7 48 -12 60 -12 85 4 23 14 43 60 43 99 0 22 3
24 34 20 45 -6 92 15 110 52 22 42 20 130 -4 202 -15 44 -19 75 -15 117 7 79
7 276 0 342 -14 127 -54 279 -96 362 -11 21 -19 39 -19 40 0 2 22 12 49 22
103 41 146 105 110 165 -11 18 -28 35 -40 39 -19 8 -18 11 21 46 91 82 113
147 63 186 -43 34 -164 24 -303 -25 -58 -20 -134 -46 -169 -57 l-64 -21 -56
28 c-160 78 -329 117 -521 119 -123 1 -192 -4 -260 -18 -14 -3 -36 -8 -51 -11
-20 -5 -51 11 -150 76 -207 136 -318 179 -379 147z"/>
<path d="M4040 3678 c-48 -14 -116 -72 -141 -121 -30 -57 -36 -143 -14 -199
15 -41 15 -50 1 -96 -9 -32 -11 -54 -5 -57 5 -4 33 -1 62 5 43 10 59 10 87 -2
151 -62 322 46 337 212 17 179 -148 309 -327 258z"/>
</g>
</svg>
